<svg xmlns="http://www.w3.org/2000/svg" xmlns:xlink="http://www.w3.org/1999/xlink" width="1080" zoomAndPan="magnify" viewBox="0 0 810 809.999993" height="1080" preserveAspectRatio="xMidYMid meet" version="1.0"><defs><clipPath id="3b926ea4cd"><path d="M 163 447 L 765 447 L 765 521 L 163 521 Z M 163 447 " clip-rule="nonzero"/></clipPath><clipPath id="e1e837a4c6"><path d="M 32.535156 176.320312 L 841.070312 380.828125 L 777.070312 633.859375 L -31.464844 429.351562 Z M 32.535156 176.320312 " clip-rule="nonzero"/></clipPath><clipPath id="f469972dd0"><path d="M 32.535156 176.320312 L 841.070312 380.828125 L 777.070312 633.859375 L -31.464844 429.351562 Z M 32.535156 176.320312 " clip-rule="nonzero"/></clipPath><clipPath id="f758e9e379"><path d="M 22 220 L 806 220 L 806 518 L 22 518 Z M 22 220 " clip-rule="nonzero"/></clipPath><clipPath id="0d5a53bbae"><path d="M 32.535156 176.320312 L 841.070312 380.828125 L 777.070312 633.859375 L -31.464844 429.351562 Z M 32.535156 176.320312 " clip-rule="nonzero"/></clipPath><clipPath id="1f79c47e78"><path d="M 32.535156 176.320312 L 841.070312 380.828125 L 777.070312 633.859375 L -31.464844 429.351562 Z M 32.535156 176.320312 " clip-rule="nonzero"/></clipPath><clipPath id="9860d56346"><path d="M 37 177 L 358 177 L 358 395 L 37 395 Z M 37 177 " clip-rule="nonzero"/></clipPath><clipPath id="783036a451"><path d="M 32.535156 176.320312 L 841.070312 380.828125 L 777.070312 633.859375 L -31.464844 429.351562 Z M 32.535156 176.320312 " clip-rule="nonzero"/></clipPath><clipPath id="f266aa0f8c"><path d="M 32.535156 176.320312 L 841.070312 380.828125 L 777.070312 633.859375 L -31.464844 429.351562 Z M 32.535156 176.320312 " clip-rule="nonzero"/></clipPath><clipPath id="f805997d65"><path d="M 230 451 L 247 451 L 247 456 L 230 456 Z M 230 451 " clip-rule="nonzero"/></clipPath><clipPath id="1887d15450"><path d="M 32.535156 176.320312 L 841.070312 380.828125 L 777.070312 633.859375 L -31.464844 429.351562 Z M 32.535156 176.320312 " clip-rule="nonzero"/></clipPath><clipPath id="91ca7f20e6"><path d="M 32.535156 176.320312 L 841.070312 380.828125 L 777.070312 633.859375 L -31.464844 429.351562 Z M 32.535156 176.320312 " clip-rule="nonzero"/></clipPath><clipPath id="dc540a7832"><path d="M 169 425 L 242 425 L 242 455 L 169 455 Z M 169 425 " clip-rule="nonzero"/></clipPath><clipPath id="925bb59eb8"><path d="M 32.535156 176.320312 L 841.070312 380.828125 L 777.070312 633.859375 L -31.464844 429.351562 Z M 32.535156 176.320312 " clip-rule="nonzero"/></clipPath><clipPath id="d1aa31eba7"><path d="M 32.535156 176.320312 L 841.070312 380.828125 L 777.070312 633.859375 L -31.464844 429.351562 Z M 32.535156 176.320312 " clip-rule="nonzero"/></clipPath></defs><g clip-path="url(#3b926ea4cd)"><g clip-path="url(#e1e837a4c6)"><g clip-path="url(#f469972dd0)"><path fill="#5592d6" d="M 764.019531 520.085938 C 750.753906 511.710938 734.714844 503.542969 716.238281 497.222656 C 709.898438 494.960938 703.230469 493.027344 696.34375 491.285156 C 667.34375 483.949219 634.265625 481.011719 597.929688 482.519531 C 585.019531 483.125 574.125 483.90625 563.847656 484.84375 C 553.300781 485.878906 542.191406 487.183594 528.589844 488.925781 C 503.871094 492.300781 478.261719 496.277344 456.5625 499.753906 L 453.933594 500.078125 C 431.191406 503.460938 407.691406 506.898438 385.28125 508.960938 C 374.035156 510.148438 362.582031 510.871094 351.300781 511.226562 C 338.996094 511.734375 328.46875 511.707031 318.796875 511.238281 C 298.910156 510.484375 279.84375 507.800781 262.128906 503.320312 C 243.339844 498.566406 226.117188 491.828125 210.875 483.117188 C 191.882812 472.632812 176.191406 459.535156 163.882812 447.039062 C 177.097656 455.320312 193.035156 463.542969 211.375 469.75 C 217.714844 472.007812 224.367188 474.019531 231.246094 475.761719 C 260.253906 483.097656 293.351562 485.953125 329.683594 484.453125 C 341.761719 483.882812 352.988281 483.101562 363.761719 482.125 C 375.84375 480.898438 387.824219 479.40625 399.027344 478.042969 C 423.746094 474.667969 449.195312 470.65625 471.046875 467.214844 L 475 466.566406 C 497.296875 463.320312 520.367188 459.941406 542.273438 457.914062 C 554.175781 456.722656 565.652344 455.925781 576.351562 455.585938 C 589.140625 455.121094 599.496094 455.1875 608.859375 455.578125 C 628.746094 456.332031 647.8125 459.015625 665.523438 463.492188 C 684.316406 468.246094 701.519531 475.066406 716.78125 483.699219 C 735.90625 494.296875 751.652344 507.496094 764.019531 520.085938 " fill-opacity="1" fill-rule="nonzero"/></g></g></g><g clip-path="url(#f758e9e379)"><g clip-path="url(#0d5a53bbae)"><g clip-path="url(#1f79c47e78)"><path fill="#0d68cc" d="M 805.460938 517.9375 C 804.859375 517.371094 802.703125 514.851562 798.726562 511.050781 C 794.289062 506.472656 787.574219 500.167969 778.949219 492.960938 C 761.53125 478.519531 735.847656 461.328125 702.5625 450.109375 C 669.433594 438.605469 628.703125 433.402344 583.230469 434.902344 C 571.851562 435.320312 560.261719 435.921875 548.417969 436.875 C 536.554688 437.90625 524.457031 439.210938 512.246094 440.644531 C 487.878906 443.617188 462.949219 447.1875 437.925781 450.8125 C 413.050781 454.148438 388.160156 457.566406 363.972656 459.511719 C 351.9375 460.578125 339.996094 461.261719 328.328125 461.515625 C 316.640625 461.855469 305.203125 461.839844 294.101562 461.171875 C 283.289062 460.660156 272.742188 459.722656 262.59375 458.222656 C 262.59375 458.222656 262.441406 458.183594 262.1875 458.199219 C 261.628906 458.144531 260.523438 457.945312 259.011719 457.726562 C 258.066406 457.570312 257.195312 457.433594 256.25 457.277344 C 254.742188 457.058594 252.941406 456.683594 250.992188 456.273438 C 249.574219 456 248.089844 455.707031 246.464844 455.296875 C 245.054688 455.019531 243.507812 454.628906 241.957031 454.238281 C 238.613281 453.472656 234.90625 452.535156 230.996094 451.382812 C 230.070312 451.148438 229.160156 450.839844 228.234375 450.605469 C 226.707031 450.132812 225.179688 449.664062 223.574219 449.175781 C 222.203125 448.746094 220.75 448.296875 219.378906 447.871094 C 217.039062 447.03125 214.683594 446.269531 212.210938 445.316406 C 206.234375 443.230469 199.953125 440.734375 193.382812 437.757812 C 188.863281 435.789062 184.222656 433.628906 179.492188 431.199219 C 176.207031 429.542969 172.867188 427.792969 169.484375 425.867188 C 169.328125 425.824219 169.253906 425.804688 169.195312 425.714844 C 113.503906 394.753906 48.695312 335.082031 22.5625 220.765625 C 25.539062 229.5 72.4375 361.90625 194.34375 405.988281 C 225.8125 415.597656 263.414062 419.839844 304.898438 418.480469 C 306.488281 418.390625 308.054688 418.375 309.640625 418.285156 C 319.449219 417.886719 329.550781 417.316406 339.730469 416.433594 C 351.59375 415.402344 363.691406 414.097656 375.804688 412.71875 C 400.269531 409.691406 425.199219 406.121094 450.148438 402.476562 C 475.097656 399.160156 500.007812 395.667969 524.101562 393.777344 C 536.234375 392.652344 548.175781 391.972656 559.84375 391.714844 C 571.53125 391.375 582.960938 391.390625 594.085938 391.984375 C 638.660156 394.039062 678.039062 404.574219 709.644531 422.117188 C 741.40625 439.363281 765.386719 463.289062 781.414062 483.21875 C 789.355469 493.128906 795.382812 502.140625 799.429688 508.265625 C 802.996094 513.691406 804.9375 517.066406 805.460938 517.9375 " fill-opacity="1" fill-rule="nonzero"/></g></g></g><g clip-path="url(#9860d56346)"><g clip-path="url(#783036a451)"><g clip-path="url(#f266aa0f8c)"><path fill="#5592d6" d="M 37.472656 177.585938 C 37.472656 177.585938 38.09375 179.117188 39.257812 181.984375 C 40.402344 184.859375 42.128906 189.085938 44.445312 194.328125 C 48.996094 204.839844 55.996094 219.683594 65.855469 236.484375 C 70.683594 244.949219 76.617188 253.671875 82.839844 262.855469 C 89.335938 271.871094 96.566406 281.054688 104.402344 290.222656 C 112.320312 299.332031 121.132812 308.125 130.324219 316.757812 C 139.734375 325.394531 149.421875 333.101562 160.265625 340.585938 C 170.40625 347.640625 181.679688 353.933594 192.941406 359.269531 C 204.347656 364.425781 215.898438 368.863281 227.390625 372.363281 C 238.949219 375.605469 250.269531 378.460938 261.214844 380.421875 C 272.148438 382.355469 282.601562 383.855469 292.316406 384.910156 C 311.761719 386.925781 328.179688 387.816406 339.683594 388.308594 C 351.222656 388.824219 357.820312 389.121094 357.820312 389.121094 C 357.820312 389.121094 356.179688 389.347656 353.109375 389.769531 C 350.039062 390.144531 345.566406 390.917969 339.792969 391.480469 C 328.296875 392.773438 311.769531 394.21875 291.785156 394.054688 C 281.796875 393.992188 270.9375 393.519531 259.492188 392.207031 C 248.03125 390.984375 235.976562 388.953125 223.671875 385.914062 C 211.445312 382.632812 198.816406 378.820312 186.59375 373.304688 C 174.382812 367.703125 162.476562 361.371094 150.914062 353.5 C 140.191406 345.894531 129.347656 337.054688 119.820312 328 C 110.164062 318.847656 101.5625 308.96875 93.621094 299.175781 C 77.957031 279.359375 66.042969 258.953125 57.769531 240.703125 C 49.308594 222.515625 44.375 206.578125 41.449219 195.332031 C 39.859375 189.734375 39.09375 185.265625 38.4375 182.234375 C 37.804688 179.203125 37.472656 177.585938 37.472656 177.585938 " fill-opacity="1" fill-rule="nonzero"/></g></g></g><g clip-path="url(#f805997d65)"><g clip-path="url(#1887d15450)"><g clip-path="url(#91ca7f20e6)"><path fill="#0d68cc" d="M 246.464844 455.296875 C 244.125 454.785156 241.476562 454.195312 238.695312 453.492188 L 237.921875 453.296875 C 235.75 452.75 233.453125 452.085938 230.996094 451.382812 C 234.90625 452.535156 238.613281 453.472656 241.957031 454.238281 C 243.507812 454.628906 245.054688 455.019531 246.464844 455.296875 " fill-opacity="1" fill-rule="nonzero"/></g></g></g><g clip-path="url(#dc540a7832)"><g clip-path="url(#925bb59eb8)"><g clip-path="url(#d1aa31eba7)"><path fill="#0d68cc" d="M 241.957031 454.238281 C 240.878906 453.964844 239.773438 453.765625 238.695312 453.492188 L 237.921875 453.296875 C 216.070312 448.265625 195.988281 440.800781 178.449219 431.097656 C 175.414062 429.425781 172.398438 427.675781 169.484375 425.867188 C 172.867188 427.792969 176.207031 429.542969 179.492188 431.199219 C 184.222656 433.628906 188.863281 435.789062 193.382812 437.757812 C 199.953125 440.734375 206.234375 443.230469 212.210938 445.316406 C 214.601562 446.25 217.039062 447.03125 219.378906 447.871094 C 220.75 448.296875 222.203125 448.746094 223.574219 449.175781 C 225.179688 449.664062 226.707031 450.132812 228.234375 450.605469 C 229.160156 450.839844 230.070312 451.148438 230.996094 451.382812 C 234.90625 452.535156 238.613281 453.472656 241.957031 454.238281 " fill-opacity="1" fill-rule="nonzero"/></g></g></g></svg>