<svg xmlns="http://www.w3.org/2000/svg" xmlns:xlink="http://www.w3.org/1999/xlink" width="1080" zoomAndPan="magnify" viewBox="0 0 810 809.999993" height="1080" preserveAspectRatio="xMidYMid meet" version="1.0"><defs><clipPath id="4bb84fc485"><path d="M 127.332031 10.914062 L 682 10.914062 L 682 797 L 127.332031 797 Z M 127.332031 10.914062 " clip-rule="nonzero"/></clipPath><clipPath id="0318c26416"><path d="M 0.679688 1 L 494 1 L 494 754 L 0.679688 754 Z M 0.679688 1 " clip-rule="nonzero"/></clipPath><clipPath id="f22c322789"><path d="M 90 168 L 539 168 L 539 786.558594 L 90 786.558594 Z M 90 168 " clip-rule="nonzero"/></clipPath><clipPath id="b174d2de8d"><path d="M 252 263 L 544 263 L 544 786.558594 L 252 786.558594 Z M 252 263 " clip-rule="nonzero"/></clipPath><clipPath id="1fe2d527f4"><rect x="0" width="555" y="0" height="787"/></clipPath></defs><g clip-path="url(#4bb84fc485)"><g transform="matrix(1, 0, 0, 1, 127, 10)"><g clip-path="url(#1fe2d527f4)"><g clip-path="url(#0318c26416)"><path fill="#ffffff" d="M 1.226562 744.511719 C 5.613281 726.046875 13.640625 708.660156 22.546875 691.972656 C 31.503906 675.21875 41.984375 659.476562 53.984375 644.746094 C 60.175781 637.140625 66.933594 630.078125 74.253906 623.558594 C 81.578125 617.035156 89.371094 611.140625 97.636719 605.867188 C 105.648438 600.785156 114.042969 596.496094 123.074219 593.472656 C 132.511719 590.308594 142.230469 588.269531 151.804688 585.578125 C 160.4375 583.148438 169.117188 580.269531 176.695312 575.359375 C 183.839844 570.734375 189.386719 564.269531 195.292969 558.234375 C 201.285156 552.117188 207.78125 546.578125 215.367188 542.527344 C 223.261719 538.316406 231.84375 535.738281 240.316406 533.015625 C 266.882812 524.480469 292.167969 509.078125 306.050781 484.105469 C 323.773438 452.230469 323.546875 412.503906 318.453125 377.421875 C 315.621094 357.859375 311.589844 338.308594 305.515625 319.503906 C 299.816406 301.863281 294.40625 284.050781 290.910156 265.824219 C 288.144531 251.464844 286.765625 236.625 289.734375 222.191406 C 292.488281 208.78125 299.625 197.007812 309.585938 187.714844 C 322.363281 175.789062 338.859375 168.417969 355.292969 163.082031 C 373.273438 157.21875 392.214844 154.53125 410.957031 152.28125 C 425.304688 150.554688 439.230469 148.460938 453.1875 144.742188 C 462.492188 142.257812 471.054688 137.503906 476.351562 129.492188 C 483.523438 118.648438 484.175781 105.402344 484.015625 92.789062 C 483.765625 72.542969 481.480469 52.398438 480.105469 32.214844 C 479.777344 27.390625 479.492188 23.003906 480.300781 18.242188 C 481.179688 13.058594 481.292969 7.929688 481.617188 2.691406 C 481.710938 1.167969 484.25 0.933594 484.355469 2.535156 C 484.683594 7.773438 485.054688 12.785156 486.464844 17.859375 C 487.871094 22.933594 488.164062 27.824219 488.65625 33.019531 C 489.605469 42.964844 490.769531 52.886719 491.75 62.839844 C 493.527344 80.925781 495.511719 99.886719 491.847656 117.871094 C 489.65625 128.5625 484.722656 138.714844 476.226562 145.792969 C 467.113281 153.390625 455.847656 157.835938 444.375 160.371094 C 409.964844 167.972656 372.890625 165.996094 340.300781 180.765625 C 326.269531 187.125 312.980469 196.382812 305.21875 209.996094 C 298.917969 221.050781 297.566406 234.242188 298.402344 246.726562 C 299.441406 263.015625 304.164062 278.871094 307.390625 294.832031 C 309.46875 305.101562 311.386719 315.40625 313.410156 325.683594 C 315.273438 335.175781 317.773438 344.542969 319.765625 354.027344 C 327.503906 390.738281 332.042969 430.730469 321.492188 467.375 C 317.40625 481.5625 310.855469 494.972656 301.441406 506.40625 C 292.640625 517.097656 281.554688 525.816406 269.601562 532.71875 C 262.761719 536.746094 255.636719 540.191406 248.234375 543.054688 C 240.179688 546.121094 231.890625 548.640625 224.183594 552.511719 C 209.304688 559.96875 200.710938 574.441406 188.011719 584.601562 C 173.042969 596.601562 153.390625 599.585938 135.421875 604.578125 C 116.855469 609.730469 100.445312 619.773438 85.945312 632.347656 C 72.011719 644.425781 60.070312 658.582031 49.445312 673.601562 C 38.480469 689.078125 28.808594 705.515625 21.859375 723.191406 C 18.546875 731.648438 15.746094 740.273438 13.464844 749.066406 C 12.589844 752.484375 8.121094 754.050781 5.058594 752.90625 C 1.421875 751.558594 0.402344 747.957031 1.226562 744.511719 Z M 1.226562 744.511719 " fill-opacity="1" fill-rule="nonzero"/></g><path fill="#ffffff" d="M 320.082031 219.1875 C 327.398438 207.1875 339.558594 198.910156 351.511719 192.046875 C 357.003906 188.898438 362.476562 185.808594 368.382812 183.519531 C 373.816406 181.46875 379.363281 179.789062 385.023438 178.476562 C 396.863281 175.621094 409.015625 174.089844 421.097656 172.625 C 432.742188 171.207031 443.40625 169.65625 454.914062 166.292969 C 465.269531 163.261719 474.648438 158.605469 482.355469 150.898438 C 483.355469 149.898438 484.355469 148.902344 485.332031 147.886719 C 485.796875 147.40625 486.253906 146.917969 486.699219 146.421875 L 487.464844 145.542969 L 487.902344 145.003906 C 489.300781 143.144531 490.578125 141.207031 491.734375 139.1875 C 494.351562 134.699219 496.484375 129.992188 498.132812 125.066406 C 501.984375 113.933594 504.03125 102.261719 505.148438 90.574219 C 506.328125 78.542969 506.492188 66.5 505.648438 54.4375 C 505.25 48.816406 504.664062 43.203125 503.8125 37.632812 C 503.425781 35.085938 502.855469 32.554688 502.574219 29.992188 C 502.3125 27.570312 501.699219 25.074219 501.796875 22.648438 C 501.824219 20.664062 501.597656 18.710938 501.109375 16.789062 C 500.671875 14.957031 503.453125 14.4375 504.179688 16.003906 C 505.003906 17.890625 505.9375 19.714844 506.988281 21.484375 C 508.222656 23.507812 508.800781 26.128906 509.488281 28.398438 C 511.042969 33.546875 511.597656 39.15625 512.210938 44.46875 C 513.546875 56.503906 513.960938 68.570312 513.457031 80.667969 C 513.054688 93.234375 511.433594 105.644531 508.59375 117.894531 C 506.0625 128.53125 502.550781 139.25 496.710938 148.59375 C 493.589844 153.582031 490.132812 158.152344 485.652344 162.019531 C 481.230469 165.835938 476.398438 169.027344 471.152344 171.597656 C 460.105469 177.019531 448.253906 179.613281 436.148438 181.390625 C 424.261719 183.144531 412.285156 183.925781 400.355469 185.246094 C 388.90625 186.507812 377.589844 188.066406 366.800781 192.210938 C 360.953125 194.457031 355.527344 197.546875 350.203125 200.832031 C 344.425781 204.394531 338.722656 208.324219 333.898438 213.113281 C 328.894531 218.101562 324.691406 224.019531 322.191406 230.652344 C 321.058594 233.65625 320.472656 236.761719 320.4375 239.96875 C 320.390625 242.984375 321.019531 245.964844 321.019531 248.972656 C 320.957031 252.488281 320.519531 255.953125 319.703125 259.375 C 319.683594 259.515625 319.621094 259.636719 319.515625 259.730469 C 319.40625 259.824219 319.28125 259.875 319.140625 259.878906 C 318.996094 259.882812 318.867188 259.84375 318.757812 259.753906 C 318.644531 259.664062 318.574219 259.550781 318.546875 259.410156 C 317.742188 255.902344 316.445312 252.574219 315.609375 249.089844 C 314.914062 246.117188 314.503906 243.105469 314.375 240.054688 C 314.050781 232.628906 316.207031 225.539062 320.082031 219.1875 Z M 320.082031 219.1875 " fill-opacity="1" fill-rule="nonzero"/><path fill="#ffffff" d="M 328.128906 511.210938 C 329.855469 507.492188 331.457031 503.695312 333.003906 499.898438 C 335.839844 492.871094 337.964844 485.632812 339.382812 478.1875 C 342.253906 463.457031 342.289062 448.542969 341.035156 433.636719 C 339.617188 416.789062 336.648438 400.128906 334.691406 383.34375 C 333.671875 374.617188 332.996094 365.84375 332.222656 357.09375 C 331.828125 352.601562 331.414062 348.113281 331.015625 343.617188 C 330.613281 339.121094 330.789062 334.554688 330.34375 330.019531 C 329.371094 320.082031 328.125 310.179688 327.054688 300.257812 C 326.449219 294.53125 325.539062 288.855469 324.320312 283.226562 C 327.707031 296.40625 330.753906 309.652344 332.609375 323.136719 C 333.21875 327.574219 333.625 332.0625 334.488281 336.460938 C 335.351562 340.859375 335.890625 345.292969 336.355469 349.785156 C 337.28125 358.792969 338.167969 367.8125 339.164062 376.8125 C 342.707031 408.78125 349.015625 441.417969 344.753906 473.632812 C 343.554688 482.347656 341.644531 490.902344 339.03125 499.296875 C 337.6875 503.667969 336.078125 507.9375 334.207031 512.109375 C 332.125 516.773438 330.101562 521.488281 326.582031 525.265625 C 325.136719 526.8125 322.484375 525.265625 323 523.265625 C 324.121094 518.980469 326.277344 515.214844 328.128906 511.210938 Z M 328.128906 511.210938 " fill-opacity="1" fill-rule="nonzero"/><path fill="#ffffff" d="M 324.320312 283.230469 C 323.375 279.550781 322.40625 275.875 321.421875 272.199219 C 322.558594 275.828125 323.523438 279.507812 324.320312 283.230469 Z M 324.320312 283.230469 " fill-opacity="1" fill-rule="nonzero"/><path fill="#ffffff" d="M 321.152344 271.179688 C 321.242188 271.519531 321.332031 271.859375 321.421875 272.199219 C 321.316406 271.863281 321.214844 271.527344 321.105469 271.195312 C 321.101562 271.179688 321.109375 271.167969 321.121094 271.164062 C 321.136719 271.160156 321.144531 271.167969 321.152344 271.179688 Z M 321.152344 271.179688 " fill-opacity="1" fill-rule="nonzero"/><path fill="#ffffff" d="M 20.523438 773.785156 C 21.375 761.34375 26.457031 749.878906 32.046875 738.890625 C 38.082031 727.046875 45.386719 715.921875 52.222656 705.183594 C 66.132812 683.390625 80.605469 661.871094 100.265625 644.796875 C 105.144531 640.472656 110.347656 636.585938 115.871094 633.128906 C 120.792969 630.117188 126.148438 627.863281 131.542969 625.882812 C 142.667969 621.765625 154.214844 619 165.074219 614.210938 C 170.003906 612.019531 174.804688 609.65625 178.980469 606.210938 C 183.15625 602.761719 186.757812 598.546875 190.289062 594.367188 C 193.824219 590.1875 197.375 586.257812 201.644531 582.960938 C 206.726562 579.015625 212.652344 576.1875 218.640625 573.894531 C 231.210938 569.074219 244.480469 566.234375 257.230469 561.898438 C 263.386719 559.820312 269.414062 557.433594 275.320312 554.734375 C 278.265625 553.386719 281.335938 552.597656 284.375 551.515625 C 287.265625 550.464844 290.0625 549.207031 292.761719 547.738281 C 295.589844 546.191406 298.332031 544.503906 300.980469 542.671875 C 301.859375 542.066406 302.886719 543.546875 302.042969 544.242188 C 297.21875 548.117188 292.074219 551.636719 287.335938 555.644531 C 284.957031 557.644531 282.535156 559.835938 279.777344 561.289062 C 277.09375 562.699219 274.375 564.039062 271.621094 565.304688 C 265.480469 568.128906 259.199219 570.691406 252.828125 572.910156 C 246.609375 575.070312 240.207031 576.6875 233.890625 578.53125 C 222.429688 581.882812 210.765625 585.851562 202.316406 594.695312 C 198.773438 598.410156 195.65625 602.5 192.167969 606.261719 C 188.21875 610.585938 183.832031 614.410156 179.011719 617.734375 C 169.105469 624.460938 157.773438 628.164062 146.558594 632.105469 C 135.527344 635.988281 124.660156 640.476562 115.390625 647.488281 C 95.8125 662.296875 80.304688 682.945312 67.785156 704 C 55.460938 724.691406 43.433594 745.972656 36.027344 768.996094 C 35.183594 771.625 34.070312 774.125 33.234375 776.75 C 32.253906 779.839844 28.617188 781.574219 25.597656 780.808594 C 25.210938 780.71875 24.839844 780.59375 24.476562 780.4375 C 24.117188 780.28125 23.769531 780.089844 23.441406 779.871094 C 23.113281 779.652344 22.808594 779.40625 22.523438 779.132812 C 22.242188 778.859375 21.984375 778.5625 21.75 778.242188 C 21.519531 777.921875 21.320312 777.585938 21.148438 777.226562 C 20.980469 776.871094 20.839844 776.503906 20.734375 776.125 C 20.632812 775.742188 20.5625 775.355469 20.523438 774.964844 C 20.488281 774.570312 20.488281 774.179688 20.523438 773.785156 Z M 20.523438 773.785156 " fill-opacity="1" fill-rule="nonzero"/><path fill="#ffffff" d="M 55.824219 763.082031 C 62.890625 748.84375 70.597656 734.753906 79.660156 721.671875 C 84.101562 715.265625 88.871094 709.125 93.582031 702.910156 C 96.476562 699.074219 99.234375 695.207031 102.351562 691.554688 C 104.867188 688.632812 107.429688 685.742188 110.039062 682.890625 C 120.5625 671.355469 132.054688 660.878906 144.511719 651.464844 C 151.277344 646.378906 158.335938 641.738281 165.683594 637.539062 C 169.628906 635.296875 173.640625 633.175781 177.707031 631.171875 C 179.539062 630.292969 181.378906 629.417969 183.191406 628.484375 C 184.066406 628.042969 184.921875 627.605469 185.792969 627.128906 L 186.046875 626.992188 C 186.746094 626.605469 187.449219 626.21875 188.144531 625.828125 C 196.21875 621.324219 204.117188 616.492188 212.449219 612.472656 C 217.273438 610.136719 222.234375 607.945312 227.386719 606.425781 C 231.800781 605.1875 236.277344 604.234375 240.8125 603.570312 C 245.292969 602.855469 249.796875 602.253906 254.277344 601.523438 C 256.503906 601.152344 258.726562 600.738281 260.933594 600.25 C 261.96875 600.019531 263 599.773438 264.035156 599.503906 L 265.546875 599.09375 L 266.15625 598.898438 C 269.910156 597.5625 273.546875 595.972656 277.078125 594.125 L 277.167969 594.078125 L 278.25 593.441406 C 278.996094 593 279.734375 592.546875 280.464844 592.082031 C 282.140625 591.023438 283.789062 589.914062 285.40625 588.761719 C 286.867188 587.714844 288.3125 586.636719 289.742188 585.527344 C 290.460938 584.964844 291.175781 584.394531 291.886719 583.816406 C 292.324219 583.453125 292.761719 583.089844 293.203125 582.71875 L 294.078125 581.980469 L 294.515625 581.601562 L 295.5625 580.664062 C 296.261719 580.03125 296.953125 579.394531 297.636719 578.75 C 299.191406 577.289062 300.71875 575.800781 302.222656 574.28125 C 305.082031 571.382812 307.84375 568.386719 310.507812 565.300781 C 311.859375 563.742188 313.199219 562.167969 314.492188 560.558594 C 315.371094 559.460938 316.246094 558.339844 317.15625 557.273438 C 317.46875 556.914062 317.78125 556.566406 318.09375 556.210938 C 318.160156 556.136719 318.578125 555.644531 318.820312 555.363281 C 318.992188 555.140625 319.261719 554.804688 319.308594 554.726562 L 320.140625 553.578125 C 320.765625 552.699219 321.386719 551.855469 321.996094 550.988281 C 323.144531 549.363281 324.265625 547.726562 325.359375 546.070312 C 327.484375 542.855469 329.515625 539.585938 331.453125 536.269531 C 331.945312 535.417969 332.429688 534.5625 332.914062 533.703125 L 333.539062 532.570312 C 333.175781 533.21875 332.535156 534.449219 334.152344 531.441406 C 333.484375 532.691406 334.640625 530.515625 334.78125 530.246094 C 335.261719 529.328125 335.734375 528.402344 336.191406 527.472656 C 337.421875 525.007812 338.578125 522.511719 339.75 520.015625 C 345.328125 508.175781 350.773438 496.199219 355.539062 484 C 357.945312 477.863281 359.746094 471.464844 361.445312 465.089844 C 362.910156 459.601562 363.984375 454.019531 364 448.316406 C 364 447.15625 363.9375 445.996094 363.957031 444.839844 C 363.957031 443.851562 364.175781 442.53125 363.925781 441.570312 C 363.050781 438.269531 368.199219 436.910156 369.066406 440.226562 C 369.71875 442.714844 370.699219 444.773438 370.90625 447.421875 C 371.097656 450.117188 371.085938 452.8125 370.878906 455.503906 C 370.421875 462.058594 369.429688 468.527344 367.894531 474.914062 C 364.546875 488.738281 360.328125 502.289062 355.242188 515.570312 C 350.460938 528.128906 345.351562 540.386719 338.476562 551.992188 C 330.03125 566.253906 320.101562 579.664062 308.085938 591.136719 C 295.441406 603.210938 281.136719 613.0625 263.984375 617.296875 C 255.433594 619.417969 246.628906 620.257812 238.050781 622.25 C 229.34375 624.273438 221.472656 627.90625 213.675781 632.195312 C 205.238281 636.835938 197.007812 641.882812 188.417969 646.226562 C 184.785156 648.058594 181.128906 649.824219 177.554688 651.769531 C 175.898438 652.675781 174.265625 653.613281 172.640625 654.5625 C 172.054688 654.910156 170.195312 656.003906 170.289062 655.941406 L 170.253906 655.941406 C 169.375 656.46875 168.5 657 167.621094 657.539062 C 154.53125 665.660156 142.394531 675.027344 131.222656 685.636719 C 125.644531 690.898438 120.296875 696.390625 115.152344 702.066406 C 110.007812 707.746094 104.820312 713.15625 100.011719 719.050781 C 94.441406 725.878906 89.011719 732.832031 83.570312 739.765625 C 82.605469 741 81.539062 742.308594 80.121094 743.988281 C 78.800781 745.558594 77.484375 747.132812 76.175781 748.710938 C 73.679688 751.710938 71.203125 754.722656 68.742188 757.746094 C 66.257812 760.816406 63.625 763.710938 61.03125 766.671875 C 58.605469 769.453125 54.230469 766.304688 55.824219 763.082031 Z M 55.824219 763.082031 " fill-opacity="1" fill-rule="nonzero"/><path fill="#ffffff" d="M 335.59375 271.804688 C 336.433594 256.890625 339.636719 241.824219 349.574219 230.175781 C 367.714844 208.910156 397.570312 205.90625 423.410156 201.671875 C 438.535156 199.179688 453.617188 196.292969 467.824219 190.472656 C 482.296875 184.550781 495.015625 175.222656 504.535156 162.769531 C 525.058594 135.980469 530.824219 102.367188 533.917969 69.621094 C 534.296875 65.652344 535.058594 61.726562 535.625 57.78125 C 536.039062 54.914062 540.363281 54.710938 540.785156 57.683594 C 541.984375 65.886719 542.402344 74.132812 542.042969 82.414062 C 541.652344 91.078125 540.707031 99.679688 539.203125 108.222656 C 536.199219 125.167969 530.792969 141.324219 522.101562 156.199219 C 513.652344 170.625 502.023438 183.292969 487.773438 192.132812 C 474.261719 200.515625 458.90625 205.320312 443.4375 208.574219 C 428.863281 211.644531 414.027344 213.167969 399.429688 216.082031 C 387.550781 218.453125 375.042969 221.84375 365.09375 229.058594 C 360.09375 232.679688 356.488281 236.394531 353.335938 241.335938 C 349.828125 246.828125 347.699219 252.808594 346.375 259.5 C 344.71875 267.859375 344.527344 276.503906 344.601562 285 C 344.675781 294.03125 345.414062 303.003906 346.816406 311.925781 C 348.207031 320.789062 350.023438 329.582031 351.972656 338.335938 C 353.917969 347.089844 356.285156 355.8125 357.753906 364.648438 C 359.203125 373.421875 360.824219 382.144531 362.253906 390.90625 C 362.925781 395.03125 363.515625 399.179688 363.972656 403.339844 C 364.460938 407.792969 364.410156 412.109375 364.5 416.589844 C 364.578125 420.75 364.472656 424.902344 364.183594 429.046875 C 364.042969 431.0625 360.925781 431.191406 360.996094 429.121094 C 361.28125 420.433594 360.371094 412.019531 359.359375 403.40625 C 358.332031 394.664062 356.898438 385.863281 354.644531 377.355469 C 352.34375 368.6875 349.734375 360.136719 347.542969 351.4375 C 345.351562 342.734375 343.15625 333.960938 341.273438 325.148438 C 337.527344 307.710938 334.582031 289.660156 335.59375 271.804688 Z M 335.59375 271.804688 " fill-opacity="1" fill-rule="nonzero"/><path fill="#ffffff" d="M 394.007812 262.699219 L 394.042969 262.671875 C 393.421875 263.726562 392.925781 263.757812 393.25 263.339844 C 393.523438 263.152344 393.777344 262.9375 394.007812 262.699219 Z M 394.007812 262.699219 " fill-opacity="1" fill-rule="nonzero"/><g clip-path="url(#f22c322789)"><path fill="#ffffff" d="M 90.867188 777.851562 C 94.277344 772.058594 97.640625 765.617188 100.953125 760.308594 C 104.640625 754.402344 108.683594 748.761719 112.792969 743.128906 C 120.582031 732.5 128.886719 722.289062 137.707031 712.496094 C 155.410156 692.761719 175.925781 675.796875 199.628906 663.773438 C 211.527344 657.773438 223.953125 653.207031 236.90625 650.074219 C 243.582031 648.441406 250.371094 647.414062 256.984375 645.503906 C 263.261719 643.679688 269.339844 641.34375 275.214844 638.488281 C 286.945312 632.8125 297.582031 625.238281 307.183594 616.457031 C 311.835938 612.207031 315.953125 607.179688 320 602.367188 C 324.203125 597.386719 328.230469 592.230469 331.957031 586.886719 C 339.539062 576.011719 345.992188 564.621094 352.46875 553.070312 C 356.269531 546.285156 360.449219 539.710938 363.9375 532.75 C 367.34375 525.894531 370.214844 518.820312 372.542969 511.53125 C 382.03125 482.148438 381.753906 451.667969 378.722656 421.257812 C 375.4375 388.367188 366.445312 356.304688 363.484375 323.390625 C 362.167969 308.710938 361.292969 293.339844 364 278.746094 C 365.90625 268.523438 369.941406 258.289062 377.597656 250.988281 C 385.425781 243.535156 395.476562 239.410156 406.03125 237.597656 C 412.929688 236.414062 419.953125 236.425781 426.828125 235.117188 C 434.554688 233.652344 440.339844 231.75 447.691406 228.445312 C 460.878906 222.511719 472.476562 214.492188 484.734375 205.992188 C 496.160156 198.070312 508.765625 191.796875 519.75 183.25 C 525.15625 179.109375 530.0625 174.441406 534.464844 169.242188 C 536 167.394531 539.175781 168.898438 538.261719 171.300781 C 533.308594 184.328125 522.371094 193.808594 511.851562 202.464844 C 500.160156 212.078125 487.703125 220.804688 475.621094 229.914062 C 463.230469 239.257812 450.054688 247.613281 434.996094 251.9375 C 428.390625 253.832031 421.738281 254.289062 414.980469 255.257812 C 412.308594 255.628906 409.664062 256.144531 407.046875 256.800781 C 406.632812 256.90625 402.511719 258.246094 400.851562 258.796875 C 401.203125 258.617188 401.371094 258.484375 400.414062 258.941406 L 400.160156 259.027344 C 400.171875 259.035156 400.1875 259.035156 400.199219 259.027344 C 399.761719 259.242188 399.324219 259.445312 398.882812 259.667969 C 397.9375 260.152344 397.011719 260.667969 396.109375 261.230469 C 395.398438 261.667969 394.714844 262.15625 394.03125 262.636719 L 394.113281 262.496094 C 394.078125 262.558594 394.039062 262.613281 393.996094 262.664062 L 393.792969 262.804688 C 393.582031 262.945312 393.398438 263.109375 393.234375 263.304688 C 393.113281 263.394531 392.996094 263.488281 392.902344 263.570312 C 391.550781 264.917969 390.292969 266.34375 389.125 267.851562 C 388.996094 268.066406 388.859375 268.289062 388.730469 268.492188 C 388.078125 269.609375 387.484375 270.753906 386.953125 271.929688 C 386.5625 272.808594 386.207031 273.683594 385.867188 274.5625 C 385.722656 274.945312 385.097656 276.917969 385.160156 276.605469 C 384.539062 278.867188 384.039062 281.15625 383.664062 283.472656 C 382.851562 288.835938 382.457031 294.230469 382.484375 299.65625 C 382.25 334.878906 390.996094 369.566406 394.292969 404.5 C 397.175781 435.050781 396.425781 466.289062 390.101562 496.390625 C 386.96875 511.5 382.046875 526.003906 375.34375 539.902344 C 368.847656 553.25 360.203125 564.808594 351.628906 576.90625 C 336.460938 598.3125 319.277344 618.746094 297.941406 634.273438 C 287.289062 642.085938 275.714844 648.132812 263.21875 652.417969 C 250.398438 656.773438 236.90625 658.1875 224.238281 663.1875 C 200.28125 672.660156 179.839844 689.058594 162.332031 707.714844 C 153.230469 717.410156 144.605469 727.515625 136.457031 738.035156 C 128.507812 748.363281 121.25 759.265625 113.007812 769.363281 C 108.949219 774.339844 104.675781 779.125 100.59375 784.117188 C 96.511719 789.109375 87.4375 783.679688 90.867188 777.851562 Z M 90.867188 777.851562 " fill-opacity="1" fill-rule="nonzero"/></g><path fill="#ffffff" d="M 400.429688 258.957031 L 400.867188 258.8125 C 400.664062 258.929688 400.445312 259.015625 400.21875 259.0625 L 400.238281 259.0625 Z M 400.429688 258.957031 " fill-opacity="1" fill-rule="nonzero"/><path fill="#ffffff" d="M 177.523438 745.164062 C 178.96875 739.992188 180.992188 735.054688 183.585938 730.351562 C 189.066406 720.457031 196.65625 712.308594 205.652344 705.484375 C 222.320312 692.855469 242.339844 685.675781 261.351562 677.492188 C 266.285156 675.367188 271.1875 673.175781 276.007812 670.804688 C 278.394531 669.632812 280.761719 668.410156 283.101562 667.128906 C 284.269531 666.492188 285.429688 665.839844 286.574219 665.175781 C 287.144531 664.84375 287.71875 664.511719 288.285156 664.167969 C 288.386719 664.109375 289.4375 663.476562 289.375 663.523438 C 300.589844 656.507812 311.132812 647.902344 321.101562 639.238281 C 324.300781 636.457031 325.980469 634.9375 328.558594 632.503906 C 331.136719 630.070312 333.601562 627.632812 336.105469 625.179688 C 338.609375 622.730469 341.003906 620.1875 343.480469 617.726562 C 345.761719 615.449219 348.585938 613.339844 351.109375 610.542969 C 360.472656 600.15625 368.609375 588.886719 375.519531 576.726562 C 389.148438 552.785156 398.808594 526.160156 404.125 499.128906 C 409.105469 473.796875 409.214844 448.285156 405.335938 422.820312 C 402.347656 403.234375 398.945312 383.710938 397.542969 363.921875 C 396.082031 343.308594 396.105469 321.234375 404.121094 301.808594 C 407.597656 293.347656 413.027344 285.875 420.367188 280.359375 C 424.421875 277.316406 428.914062 275.425781 433.597656 273.558594 C 439.734375 271.113281 445.785156 268.53125 451.738281 265.707031 C 463.953125 259.917969 474.921875 252.488281 484.5 242.902344 C 490.09375 237.3125 495.140625 231.207031 500.765625 225.632812 C 506.679688 219.839844 512.878906 214.371094 519.367188 209.226562 C 525.472656 204.3125 532.285156 200.300781 538.707031 195.832031 C 541.210938 194.078125 544.59375 197.9375 542.214844 200.019531 C 536.386719 205.179688 531 210.8125 525.199219 215.996094 C 518.480469 221.980469 511.945312 228.234375 505.777344 234.785156 C 500.375 240.519531 495.472656 246.703125 489.941406 252.328125 C 485.238281 257.113281 480.144531 261.4375 474.65625 265.300781 C 463.101562 273.414062 450.453125 279.070312 437.378906 284.277344 C 435.023438 285.148438 432.730469 286.171875 430.503906 287.347656 C 429.585938 287.859375 428.6875 288.40625 427.816406 288.996094 L 426.9375 289.585938 C 426.800781 289.683594 425.863281 290.421875 425.773438 290.464844 C 424.304688 291.691406 422.933594 293.019531 421.660156 294.445312 C 420.980469 295.214844 420.34375 296.011719 419.699219 296.824219 L 419.492188 297.097656 C 419.152344 297.574219 418.824219 298.0625 418.503906 298.558594 C 413.496094 306.296875 411.382812 313.632812 409.796875 322.804688 C 408.070312 332.742188 407.792969 342.222656 408.070312 352.484375 C 408.640625 372.894531 411.738281 393.117188 414.839844 413.242188 C 418.460938 436.769531 420.421875 460.320312 418.070312 484.105469 C 416.707031 497.882812 414.375 511.875 410.375 525.140625 C 406.304688 538.433594 401.199219 551.3125 395.054688 563.777344 C 389.0625 576.011719 382.285156 587.796875 374.730469 599.128906 C 370.660156 605.269531 366.394531 611.300781 362.101562 617.265625 C 360.347656 619.675781 359.097656 621.597656 357.453125 624.214844 C 355.285156 627.6875 352.628906 630.792969 350 633.917969 C 340.5625 645.078125 329.824219 655.335938 318.613281 664.714844 C 309.039062 672.734375 298.796875 679.988281 287.820312 685.964844 C 269.792969 695.777344 250.1875 702.289062 232.089844 711.945312 C 227.78125 714.214844 223.628906 716.738281 219.625 719.511719 C 217.832031 720.769531 216.089844 722.082031 214.390625 723.460938 C 213.46875 724.210938 212.578125 724.988281 211.683594 725.765625 L 211.527344 725.898438 L 211.351562 726.078125 C 210.789062 726.636719 210.21875 727.179688 209.667969 727.746094 C 206.394531 731.125 203.484375 734.792969 200.929688 738.746094 C 200.648438 739.183594 200.375 739.621094 200.105469 740.058594 C 199.9375 740.351562 199.757812 740.628906 199.5625 740.902344 C 199.066406 741.828125 198.410156 743.191406 198.316406 743.378906 C 197.105469 745.835938 196.050781 748.359375 195.148438 750.945312 C 193.269531 756.320312 191.421875 761.738281 189.722656 767.171875 C 187.632812 773.8125 176.480469 772.871094 175.859375 765.808594 C 175.234375 758.644531 175.578125 752.085938 177.523438 745.164062 Z M 177.523438 745.164062 " fill-opacity="1" fill-rule="nonzero"/><path fill="#ffffff" d="M 217.101562 757.421875 C 220.347656 752.925781 223.957031 748.695312 227.015625 744.074219 C 229.957031 739.625 233.796875 735.792969 237.539062 732.015625 C 244.78125 724.789062 252.476562 718.089844 260.636719 711.917969 C 277.625 698.976562 296.429688 689.148438 315.730469 680.164062 C 334.316406 671.507812 351.820312 660.328125 366.945312 646.445312 C 381.8125 632.792969 394.191406 616.792969 404.617188 599.546875 C 416.855469 579.296875 425.1875 557.511719 429.175781 534.15625 C 433.207031 510.425781 433.328125 486.300781 432.640625 462.3125 C 431.960938 438.519531 430.5625 414.742188 431.375 390.933594 C 431.738281 378.671875 432.804688 366.476562 434.570312 354.339844 C 435.992188 344.921875 438.363281 336.125 442.558594 327.539062 C 451.292969 309.664062 464.992188 294.25 479.214844 280.542969 C 493.847656 266.4375 509.792969 253.734375 526.140625 241.695312 C 529.542969 239.1875 532.976562 236.726562 536.40625 234.242188 C 538.097656 233.023438 540.683594 234.171875 541.582031 235.8125 C 542.679688 237.820312 541.683594 239.785156 540.011719 240.984375 C 524.421875 252.21875 509.210938 264.023438 494.914062 276.851562 C 480.042969 290.199219 465.640625 304.773438 455.046875 321.832031 C 450.34375 329.394531 446.394531 337.484375 444.328125 346.183594 C 441.675781 357.34375 440.738281 369.136719 440.054688 380.554688 C 438.636719 404.292969 439.546875 428.128906 440.03125 451.882812 C 440.988281 499.441406 440.078125 548.421875 417.019531 591.367188 C 407.335938 609.398438 395.382812 626.535156 381.285156 641.394531 C 367.476562 655.871094 351.789062 667.902344 334.226562 677.492188 C 324.796875 682.671875 314.90625 686.839844 305.222656 691.523438 C 295.675781 696.113281 286.394531 701.1875 277.378906 706.746094 C 268.578125 712.183594 260.039062 718.148438 252.210938 724.945312 C 248.222656 728.394531 244.394531 732.03125 240.71875 735.804688 C 237.046875 739.582031 233.734375 743.554688 229.960938 747.164062 C 226.066406 750.890625 223 755.457031 219.914062 759.882812 C 218.554688 761.792969 215.679688 759.359375 217.101562 757.421875 Z M 217.101562 757.421875 " fill-opacity="1" fill-rule="nonzero"/><g clip-path="url(#b174d2de8d)"><path fill="#ffffff" d="M 252.171875 776.414062 C 259.269531 737.824219 295.203125 713.015625 326.65625 694.34375 C 342.359375 685.019531 358.875 676.628906 373.410156 665.496094 C 388.640625 653.835938 401.144531 639.347656 410.953125 622.886719 C 413.609375 618.421875 415.339844 615.347656 417.714844 610.824219 C 419.910156 606.625 421.957031 602.359375 423.796875 598 C 427.582031 589.128906 430.734375 580.042969 433.257812 570.734375 C 438.308594 551.621094 441.847656 532.234375 443.871094 512.570312 C 446.0625 491.695312 446.585938 470.679688 448.824219 449.8125 C 451.597656 423.9375 456.714844 398.414062 462.347656 373.03125 C 465.058594 360.8125 467.292969 348.277344 470.9375 336.300781 C 473.9375 326.609375 478.320312 317.59375 484.09375 309.25 C 495.351562 292.835938 510.875 280.84375 527.820312 270.78125 C 530.023438 269.527344 532.308594 268.457031 534.683594 267.566406 C 537.054688 266.621094 539.234375 265.230469 541.46875 263.996094 C 543.101562 263.09375 544.347656 265.539062 542.816406 266.527344 C 540.589844 267.964844 538.339844 269.320312 536.375 271.109375 C 534.550781 272.792969 532.636719 274.359375 530.625 275.8125 C 526.484375 278.78125 522.484375 281.988281 518.515625 285.179688 C 511.175781 291.089844 504.101562 297.527344 497.953125 304.6875 C 491.796875 311.820312 486.808594 319.691406 482.988281 328.304688 C 478.332031 338.882812 476.050781 350.234375 473.34375 361.414062 C 467.296875 386.265625 461.328125 411.246094 457.8125 436.601562 C 454.78125 458.445312 454.171875 480.457031 452.234375 502.425781 C 448.789062 541.402344 443.203125 580.789062 427.988281 617.144531 C 420.339844 635.421875 408.839844 652.1875 395.035156 666.351562 C 381.734375 680.003906 365.617188 689.855469 349.398438 699.628906 C 341.5625 704.351562 333.710938 709.058594 326 713.988281 C 322.085938 716.488281 318.210938 719.054688 314.40625 721.71875 C 312.511719 723.050781 310.632812 724.402344 308.773438 725.78125 L 307.664062 726.613281 L 306.71875 727.335938 C 305.96875 727.921875 305.21875 728.507812 304.476562 729.089844 C 297.460938 734.746094 290.789062 740.933594 284.988281 747.839844 C 284.269531 748.691406 283.570312 749.554688 282.886719 750.425781 C 282.847656 750.476562 282.253906 751.265625 282.109375 751.449219 C 281.964844 751.632812 281.886719 751.761719 281.871094 751.777344 C 280.574219 753.566406 279.34375 755.398438 278.171875 757.277344 C 275.851562 761.058594 273.757812 764.964844 271.890625 768.992188 C 271.417969 770.003906 270.980469 771.03125 270.53125 772.0625 L 270.507812 772.121094 C 270.507812 772.121094 270.507812 772.144531 270.507812 772.15625 C 270.339844 772.695312 270.101562 773.226562 269.910156 773.757812 C 269.121094 775.949219 268.375 778.105469 267.71875 780.335938 C 266.542969 784.355469 262.234375 787.4375 257.980469 786.15625 C 253.605469 784.832031 251.359375 780.835938 252.171875 776.414062 Z M 252.171875 776.414062 " fill-opacity="1" fill-rule="nonzero"/></g><path fill="#ffffff" d="M 298.339844 768.058594 C 300.28125 764.382812 302.878906 761.148438 304.878906 757.53125 C 306.71875 754.109375 308.773438 750.824219 311.042969 747.671875 C 316.238281 740.628906 322.445312 734.910156 329.292969 729.515625 C 342.566406 719.070312 357.054688 710.332031 370.378906 699.972656 C 377.433594 694.480469 384.136719 688.476562 390.863281 682.59375 C 397.695312 676.609375 404.402344 670.480469 410.804688 664.03125 C 423.378906 651.375 434.621094 637.488281 443.21875 621.804688 C 448.101562 612.910156 452.117188 603.640625 455.265625 593.996094 C 458.414062 584.347656 460.640625 574.496094 461.945312 564.433594 C 464.617188 543.269531 463.570312 522.015625 464.136719 500.753906 C 464.71875 478.894531 469.726562 457.382812 474.570312 436.148438 C 477.078125 425.144531 479.761719 414.1875 481.816406 403.085938 C 483.710938 392.828125 484.785156 382.472656 486.199219 372.148438 C 487.640625 361.53125 489.839844 351.191406 493.921875 341.253906 C 496.835938 334.160156 500.941406 328.183594 505.601562 322.183594 C 506.039062 321.636719 506.453125 321.082031 506.890625 320.542969 C 507.207031 320.152344 507.273438 320.078125 507.21875 320.152344 L 507.289062 320.066406 C 507.730469 319.507812 508.167969 318.996094 508.605469 318.472656 C 509.804688 317.148438 511.015625 315.835938 512.242188 314.527344 C 514.691406 311.960938 517.136719 309.367188 519.597656 306.804688 C 523.75 302.496094 528.023438 298.097656 532.863281 294.546875 C 533.976562 293.707031 535.144531 292.953125 536.371094 292.292969 C 536.660156 292.144531 536.949219 292 537.246094 291.855469 C 540.078125 290.726562 538.332031 291.539062 537.597656 291.753906 C 538.183594 291.582031 538.757812 291.390625 539.351562 291.25 C 542.3125 290.542969 545.332031 293.164062 545.757812 295.984375 C 546.160156 298.679688 544.652344 300.839844 542.410156 301.890625 C 542.425781 301.863281 542.441406 301.828125 542.449219 301.796875 C 542.417969 301.855469 542.371094 301.90625 542.3125 301.941406 C 541.894531 302.125 541.464844 302.273438 541.019531 302.378906 C 541.523438 302.257812 541.847656 302.167969 542.042969 302.117188 L 542.019531 302.117188 L 541.78125 302.21875 C 541.511719 302.339844 541.5 302.386719 541.613281 302.375 C 540.777344 303.027344 539.980469 303.722656 539.222656 304.460938 C 537.3125 306.28125 535.539062 308.242188 533.804688 310.226562 C 533.300781 310.808594 532.800781 311.394531 532.304688 311.980469 L 532.132812 312.175781 C 532.875 311.300781 532.648438 311.570312 531.453125 312.984375 C 530.535156 314.09375 529.613281 315.207031 528.710938 316.328125 C 528.234375 316.914062 527.765625 317.5 527.300781 318.082031 L 526.425781 319.207031 C 526.003906 319.75 525.578125 320.289062 525.144531 320.820312 C 525.625 320.265625 525.710938 320.1875 525.40625 320.582031 C 523.429688 323.371094 521.527344 326.222656 519.523438 329 C 515.859375 334.070312 512.414062 339.085938 509.707031 344.746094 C 505.503906 353.519531 503.566406 363.199219 502.171875 372.765625 C 500.726562 382.808594 499.835938 392.917969 498.097656 402.925781 C 496.273438 413.429688 493.898438 423.828125 491.441406 434.199219 C 486.464844 455.226562 481.003906 475.953125 478.6875 497.445312 C 477.546875 508.042969 476.996094 518.703125 475.957031 529.3125 C 474.96875 539.398438 473.847656 549.464844 472.265625 559.476562 C 469.023438 580.035156 463.933594 600.300781 454.882812 619.121094 C 439.234375 651.726562 412.679688 676.882812 385.265625 699.691406 C 372.550781 710.289062 358.765625 719.132812 344.828125 728.035156 C 337.789062 732.53125 331.039062 737.339844 324.414062 742.417969 C 318.050781 747.300781 311.382812 752.164062 306.125 758.285156 C 303.570312 761.253906 301.945312 765.347656 300.5 768.957031 C 299.933594 770.367188 297.648438 769.367188 298.339844 768.058594 Z M 298.339844 768.058594 " fill-opacity="1" fill-rule="nonzero"/><path fill="#ffffff" d="M 542.019531 302.15625 L 542.089844 302.128906 L 542.042969 302.128906 C 542.136719 302.0625 542.238281 302.003906 542.3125 301.945312 L 542.410156 301.898438 C 542.214844 302.175781 541.949219 302.34375 541.613281 302.398438 L 541.636719 302.398438 C 541.695312 302.347656 541.855469 302.257812 542.019531 302.15625 Z M 542.019531 302.15625 " fill-opacity="1" fill-rule="nonzero"/><path fill="#ffffff" d="M 323.859375 755.75 C 330.273438 748.734375 337.894531 742.90625 345.117188 736.722656 C 352.339844 730.539062 359.589844 724.441406 366.855469 718.324219 C 381.5 706.046875 396.367188 694.164062 411.992188 683.171875 C 424.542969 674.339844 435.503906 664.214844 444.664062 652.253906 C 453.179688 641.105469 460.058594 629.027344 465.304688 616.015625 C 476.265625 588.871094 481.007812 559.664062 486.03125 530.984375 C 488.59375 516.335938 491.09375 501.71875 493.046875 486.972656 C 495.046875 471.746094 496.839844 456.488281 499.308594 441.324219 C 501.777344 426.164062 504.839844 410.917969 509.835938 396.347656 C 514.691406 382.078125 521.050781 367.582031 530.558594 355.761719 C 532.867188 352.953125 535.335938 350.289062 537.957031 347.773438 C 540.523438 345.265625 545.15625 348.800781 542.953125 351.816406 C 538.59375 357.871094 534.574219 364.140625 530.898438 370.632812 C 527.203125 377.089844 524.042969 383.796875 521.40625 390.757812 C 516.023438 404.898438 512.316406 419.65625 509.488281 434.503906 C 503.835938 464.191406 501.324219 494.371094 496.019531 524.121094 C 490.832031 553.21875 486.371094 582.734375 476.722656 610.773438 C 472.058594 624.347656 466.28125 637.527344 458.742188 649.777344 C 450.761719 662.636719 441.066406 674.039062 429.65625 683.988281 C 423.175781 689.6875 416.113281 694.632812 409.347656 699.957031 C 401.894531 705.8125 394.675781 711.910156 387.355469 717.910156 C 372.066406 730.441406 357.167969 743.625 341.035156 755.085938 C 337.335938 757.796875 333.441406 760.1875 329.347656 762.253906 C 327.421875 763.199219 325.230469 763.132812 323.777344 761.378906 C 323.445312 760.980469 323.191406 760.539062 323.019531 760.054688 C 322.847656 759.566406 322.765625 759.066406 322.773438 758.550781 C 322.78125 758.03125 322.878906 757.535156 323.066406 757.050781 C 323.253906 756.570312 323.515625 756.136719 323.859375 755.75 Z M 323.859375 755.75 " fill-opacity="1" fill-rule="nonzero"/><path fill="#ffffff" d="M 368.175781 755.984375 C 371.894531 753.535156 375.355469 750.667969 378.777344 747.828125 C 383.023438 744.316406 387.207031 740.628906 391.105469 736.722656 C 398.898438 728.90625 406.617188 721.113281 414.871094 713.773438 C 424.625 705.09375 434.210938 696.230469 443.3125 686.855469 C 443.628906 686.527344 444.886719 685.207031 443.9375 686.210938 C 444.464844 685.65625 444.988281 685.101562 445.511719 684.546875 C 446.644531 683.347656 447.769531 682.136719 448.882812 680.917969 C 451.03125 678.578125 453.144531 676.199219 455.214844 673.78125 C 459.460938 668.84375 463.605469 663.800781 467.542969 658.613281 C 471.523438 653.457031 475.21875 648.109375 478.636719 642.566406 C 478.925781 642.097656 479.207031 641.617188 479.484375 641.144531 C 479.554688 641.003906 480.136719 639.976562 480.304688 639.671875 C 481.058594 638.285156 481.796875 636.886719 482.5 635.472656 C 483.839844 632.777344 485.097656 630.039062 486.265625 627.253906 C 488.628906 621.613281 490.675781 615.855469 492.40625 609.984375 C 492.449219 609.832031 492.484375 609.730469 492.507812 609.648438 C 492.527344 609.5625 492.5625 609.445312 492.613281 609.269531 C 492.800781 608.578125 492.988281 607.882812 493.171875 607.191406 C 493.613281 605.5625 494.050781 603.941406 494.46875 602.316406 C 495.222656 599.390625 495.921875 596.46875 496.5625 593.542969 C 501.886719 569.480469 504.054688 544.863281 508.871094 520.703125 C 511.394531 508.039062 515.007812 495.707031 518.855469 483.425781 C 522.875 470.613281 525.464844 457.492188 527.773438 444.285156 C 528.371094 440.882812 528.859375 437.75 530.023438 434.492188 C 530.804688 432.300781 533.65625 432.015625 534.542969 434.324219 C 537.019531 440.792969 536.765625 448.59375 536.054688 455.425781 C 535.371094 462.039062 534.082031 468.613281 532.667969 475.105469 C 529.832031 488.128906 526.457031 501.066406 523.898438 514.136719 C 519.117188 538.53125 517.859375 563.4375 513.996094 587.972656 C 511.972656 600.828125 509.132812 613.492188 504.785156 625.777344 C 500.242188 638.433594 494.105469 650.261719 486.367188 661.261719 C 471.128906 683.148438 451.796875 701.8125 431.679688 719.1875 C 427.1875 723.070312 422.589844 726.828125 418.140625 730.761719 C 413.957031 734.464844 409.914062 738.320312 405.546875 741.804688 C 396.960938 748.667969 388.195312 756.335938 377.863281 760.421875 C 375.691406 761.292969 373.4375 761.855469 371.105469 762.101562 C 368.070312 762.398438 364.976562 758.085938 368.175781 755.984375 Z M 368.175781 755.984375 " fill-opacity="1" fill-rule="nonzero"/><path fill="#ffffff" d="M 422.710938 745.984375 L 423.6875 745.222656 C 423.691406 745.199219 423.699219 745.179688 423.710938 745.160156 C 424.070312 744.332031 425.976562 742.871094 426.496094 742.527344 C 427.925781 741.546875 429.457031 740.691406 430.902344 739.734375 C 433.792969 737.824219 436.605469 735.796875 439.332031 733.65625 C 440 733.128906 440.667969 732.601562 441.332031 732.066406 L 442.125 731.410156 C 442.363281 730.851562 443.605469 730.152344 444.082031 729.738281 C 444.882812 729.039062 445.691406 728.355469 446.511719 727.675781 C 446.742188 727.480469 447.386719 726.730469 447.714844 726.671875 L 448.730469 725.792969 C 449.476562 725.140625 450.222656 724.476562 450.957031 723.824219 C 452.457031 722.476562 453.9375 721.105469 455.390625 719.714844 C 467.429688 708.210938 478.144531 695.253906 487.90625 681.785156 C 488.503906 680.957031 489.101562 680.125 489.695312 679.289062 C 490.054688 678.785156 490.40625 678.28125 490.761719 677.78125 L 490.847656 677.65625 C 492.15625 675.765625 493.441406 673.867188 494.707031 671.957031 C 497.167969 668.230469 499.554688 664.453125 501.867188 660.625 C 506.417969 653.082031 510.675781 645.367188 514.640625 637.480469 C 522.277344 622.28125 529.003906 607.140625 533.769531 591.359375 C 536.304688 583.121094 538.308594 574.757812 539.78125 566.265625 C 540.4375 562.363281 540.722656 558.425781 541.292969 554.515625 C 541.84375 550.90625 542.164062 547.277344 542.261719 543.628906 C 542.304688 541.652344 545.476562 540.832031 545.902344 543.019531 C 547.261719 550.003906 547.992188 556.84375 547.683594 563.964844 C 547.347656 571.902344 546.414062 579.773438 544.886719 587.574219 C 541.554688 604.574219 536.144531 621.214844 529.507812 637.203125 C 522.621094 653.789062 513.796875 669.714844 504.035156 684.761719 C 494.273438 699.808594 483.355469 714.085938 470.707031 726.863281 C 464.160156 733.484375 457.222656 739.804688 449.5625 745.125 C 446.292969 747.402344 442.929688 749.542969 439.476562 751.511719 C 437.816406 752.453125 436.125 753.351562 434.40625 754.191406 C 432.785156 755.039062 431.0625 755.539062 429.242188 755.695312 L 429.109375 755.734375 C 428.53125 755.902344 427.933594 756.023438 427.355469 756.171875 C 421.003906 757.632812 417.710938 749.878906 422.710938 745.984375 Z M 422.710938 745.984375 " fill-opacity="1" fill-rule="nonzero"/><path fill="#ffffff" d="M 465.003906 741.839844 C 466.09375 740.425781 467.289062 739.109375 468.597656 737.894531 C 469.558594 737.039062 470.597656 736.292969 471.714844 735.652344 L 472.503906 735.1875 L 472.921875 734.914062 C 475.839844 733.007812 478.753906 731.074219 481.511719 728.933594 C 484.503906 726.597656 487.363281 724.113281 490.09375 721.476562 C 491.53125 720.105469 492.921875 718.6875 494.308594 717.265625 L 494.503906 717.0625 C 494.824219 716.71875 495.140625 716.378906 495.457031 716.03125 C 496.285156 715.121094 497.113281 714.203125 497.921875 713.273438 C 503.476562 706.929688 508.84375 700.472656 513.6875 693.539062 C 518.535156 686.605469 522.714844 679.503906 527.101562 672.414062 C 531.085938 665.957031 535.398438 658.972656 538.59375 652.644531 C 539.472656 650.945312 541.097656 649.824219 543.0625 650.335938 C 544.757812 650.773438 546.359375 652.554688 545.960938 654.445312 C 544.507812 661.597656 542.359375 668.535156 539.519531 675.257812 C 536.011719 683.339844 531.625 691.003906 526.976562 698.464844 C 517.59375 713.46875 506.839844 727.847656 493.207031 739.25 C 486.628906 744.765625 477.746094 751.9375 468.574219 749.847656 C 465.105469 749.097656 462.394531 745.125 465.003906 741.839844 Z M 465.003906 741.839844 " fill-opacity="1" fill-rule="nonzero"/><path fill="#ffffff" d="M 488.113281 754.574219 C 488.390625 753.929688 488.738281 753.324219 489.160156 752.761719 C 489.503906 752.390625 489.867188 752.039062 490.25 751.707031 C 490.429688 751.535156 490.601562 751.371094 490.789062 751.210938 C 491.480469 750.628906 492.230469 750.117188 492.929688 749.535156 C 494.554688 748.195312 496.4375 747.148438 498.191406 745.945312 C 502.628906 742.875 507.113281 739.953125 511.421875 736.699219 C 516.113281 733.15625 520.867188 729.683594 525.457031 726.015625 C 529.808594 722.546875 533.882812 719.160156 537.609375 715.769531 C 539.601562 714.003906 541.484375 712.128906 543.257812 710.140625 C 544.015625 709.265625 544.75 708.386719 545.449219 707.460938 L 546.015625 706.707031 C 546.273438 706.332031 546.527344 705.949219 546.769531 705.558594 C 549.289062 701.539062 555.539062 704.769531 553.347656 709.066406 C 551.285156 713.015625 548.421875 716.597656 545.710938 720.132812 C 542.25 724.617188 538.539062 728.886719 534.585938 732.945312 C 526.304688 741.503906 517.425781 749.457031 507.601562 756.21875 C 503.191406 759.257812 496.246094 763.648438 490.734375 761.367188 C 488.175781 760.3125 486.992188 757.066406 488.113281 754.574219 Z M 488.113281 754.574219 " fill-opacity="1" fill-rule="nonzero"/></g></g></g></svg>